<svg width="335" height="335" viewBox="0 0 335 335" fill="none" xmlns="http://www.w3.org/2000/svg">
<path fill-rule="evenodd" clip-rule="evenodd" d="M318.809 124.631C318.51 123.603 318.365 122.525 318.378 121.398C318.337 120.37 318.156 119.363 317.839 118.38C313.518 106.393 305.004 99.8191 292.298 98.6585C273.475 98.5507 254.65 98.5147 235.827 98.5507C235.926 117.88 235.819 137.207 235.504 156.53C235.249 159.703 234.603 162.794 233.564 165.799C229.07 176.399 221.347 183.477 210.394 187.029C204.557 188.092 198.666 188.594 192.72 188.538C168.795 188.574 144.87 188.682 120.945 188.861C115.339 195.077 109.807 201.362 104.349 207.721C104.099 216.946 104.063 226.179 104.241 235.417C104.198 242.935 106.569 249.546 111.354 255.247C116.417 260.635 122.631 263.687 129.998 264.407C158.307 264.42 186.613 264.565 214.92 264.838C218.463 268.671 222.02 272.514 225.589 276.37C230.762 282.441 235.972 288.476 241.216 294.475C241.798 294.837 242.336 295.268 242.832 295.768C243 296.154 243.252 296.477 243.586 296.738C243.466 296.82 243.395 296.928 243.371 297.061C246.949 300.715 250.398 304.521 253.717 308.485C254.167 308.718 254.454 309.077 254.579 309.562C257.252 312.632 259.982 315.686 262.769 318.723C264.004 319.578 265.371 319.973 266.865 319.908C270.361 320.05 272.624 318.468 273.654 315.166C273.919 313.164 274.027 311.151 273.977 309.131V264.515H278.504C283.825 264.584 289.14 264.476 294.453 264.192C296.12 263.974 297.771 263.687 299.411 263.33C310.966 259.027 317.469 250.729 318.917 238.435C319.094 200.498 319.059 162.563 318.809 124.631ZM289.712 136.809C275.848 136.496 261.983 136.388 248.113 136.485C246.783 137.207 245.526 138.07 244.341 139.072C243.444 140.324 242.977 141.725 242.94 143.275C242.929 146.784 244.58 149.01 247.897 149.956C261.832 150.308 275.768 150.379 289.712 150.172C290.968 149.633 292.154 148.95 293.268 148.124C296.365 142.973 295.18 139.201 289.712 136.809ZM240.785 174.636C256.881 174.541 272.975 174.649 289.065 174.959C293.408 175.772 295.314 178.392 294.777 182.826C293.869 186.318 291.606 188.223 287.987 188.538C272.466 188.71 256.948 188.639 241.431 188.322C236.776 187.094 234.943 184.113 235.935 179.377C236.823 177.017 238.439 175.435 240.785 174.636ZM275.486 227.011C279.903 226.766 284.358 226.621 288.849 226.58C291.781 226.104 293.684 224.451 294.561 221.623C295.419 216.551 293.3 213.642 288.203 212.894C241.071 212.749 193.942 212.749 146.81 212.894C145.749 213.622 144.706 214.377 143.685 215.157C141.529 218.183 141.529 221.2 143.685 224.209C144.297 225.071 145.122 225.574 146.163 225.718C146.991 225.955 147.78 226.242 148.534 226.58C152.343 226.658 156.151 226.766 159.958 226.904C198.468 227.011 236.976 227.048 275.486 227.011Z" fill="black"/>
<path fill-rule="evenodd" clip-rule="evenodd" d="M95.0808 207.613C95.7531 206.764 96.4715 205.975 97.2362 205.242C104.058 197.383 110.955 189.59 117.928 181.856C145.879 181.847 173.825 181.705 201.772 181.425C205.13 181.238 208.363 180.518 211.471 179.27C223.078 173.698 228.861 164.467 228.822 151.573C228.967 115.507 228.967 79.4396 228.822 43.3729C228.753 39.5032 228.033 35.7673 226.667 32.165C221.761 22.1485 213.75 16.5805 202.634 15.4608C148.679 15.317 94.7215 15.317 40.7653 15.4608C39.1789 15.5433 37.5984 15.6871 36.0234 15.8918C25.4125 18.7081 18.5153 25.3538 15.3318 35.8291C15.3178 36.4602 15.174 37.0351 14.9007 37.5534C14.7224 38.386 14.5427 39.2482 14.3619 40.1399C14.2181 78.0746 14.2181 116.009 14.3619 153.944C14.4948 156.796 14.9259 159.598 15.6551 162.35C16.4371 164.059 17.2274 165.783 18.026 167.523C23.6367 176.418 31.7193 181.052 42.274 181.425C47.8776 181.533 53.4816 181.569 59.086 181.533C58.986 198.205 59.0937 214.872 59.4093 231.538C60.5741 235.769 63.3401 237.456 67.7075 236.603C68.9412 236.454 69.9469 235.915 70.725 234.986C70.7701 234.68 70.8779 234.391 71.0483 234.124C72.1319 233.184 73.1378 232.178 74.0659 231.107C74.17 230.902 74.2058 230.686 74.1736 230.46C74.3892 230.388 74.6047 230.316 74.8203 230.244C75.0358 230.173 75.2513 230.101 75.4669 230.029C75.7699 229.928 75.9137 229.712 75.898 229.382V228.52C76.4353 228.417 76.8664 228.13 77.1912 227.658C78.8995 225.11 80.9114 222.81 83.2262 220.761C83.9666 219.851 84.757 218.989 85.5972 218.174C85.8672 217.577 86.1905 217.004 86.5671 216.45C89.2477 213.303 92.0857 210.357 95.0808 207.613ZM48.3091 65.7889C49.4773 66.2318 50.6268 66.6629 51.7577 67.0821C98.457 67.3238 145.157 67.3595 191.857 67.1899C194.825 66.4493 196.729 64.6172 197.569 61.6937C198.149 57.4609 196.388 54.7667 192.288 53.611L186.684 53.3955C141.098 53.2159 95.5477 53.2519 50.0334 53.5032C48.438 54.0895 47.1448 55.0954 46.1537 56.5208C45.9472 56.6184 45.7675 56.762 45.6149 56.9518C44.9415 58.9523 44.9055 60.9641 45.5071 62.9869C46.1056 63.5152 46.5367 64.1618 46.8003 64.9268C47.3118 65.2154 47.8149 65.5027 48.3091 65.7889ZM45.2916 96.3953C45.4919 95.6881 45.7711 94.9753 46.1537 94.3477C47.2183 92.6012 49.7047 91.6371 50.2489 91.5457L55.2063 91.3302C100.328 91.1181 145.448 91.1901 190.564 91.5457C195.813 91.9809 198.147 94.8189 197.569 100.059C196.463 103.401 194.129 105.161 190.564 105.34C144.008 105.545 97.4507 105.473 50.8955 105.125C46.2184 103.993 44.1874 100.293 45.2916 96.3953ZM169.873 129.911C131.507 129.804 93.141 129.767 54.7752 129.804C54.3481 129.858 53.8975 129.886 53.4324 129.915C52.3752 129.98 51.2431 130.05 50.1412 130.45C49.2383 130.778 47.8118 131.489 46.8003 132.713C46.6405 132.907 46.5095 133.047 46.3964 133.168C46.0005 133.592 45.824 133.782 45.3993 135.192C45.0933 136.209 45.1623 137.06 45.2329 137.931C45.2575 138.234 45.2823 138.54 45.2916 138.856C46.1761 141.57 48.0442 143.186 50.8956 143.706C93.4283 143.85 135.962 143.85 178.494 143.706C181.221 143.135 182.979 141.518 183.775 138.856C184.57 134.586 182.954 131.748 178.925 130.343C175.912 130.112 172.894 129.97 169.873 129.911Z" fill="black"/>
</svg>
