<svg width="80" height="80" viewBox="0 0 80 80" fill="none" xmlns="http://www.w3.org/2000/svg">
<path d="M8.34575 44.0394L1.4423 73.7854C0.868245 76.2589 3.43511 78.2825 5.70627 77.1469L74.6334 42.6833C76.8446 41.5777 76.8446 38.4223 74.6334 37.3167L5.70627 2.85313C3.43511 1.71755 0.868243 3.74113 1.44229 6.21462L8.34575 35.9606C8.65295 37.2842 9.81152 38.2361 11.1697 38.2807L44.5639 39.3769C44.7211 39.382 44.8825 39.3926 45.0191 39.4705C45.1663 39.5545 45.3333 39.713 45.3333 40C45.3333 40.287 45.1663 40.4455 45.0191 40.5295C44.8825 40.6074 44.7211 40.618 44.5639 40.6231L11.1697 41.7193C9.81152 41.7639 8.65295 42.7158 8.34575 44.0394Z" fill="#000000d0"/>
</svg>
