<svg width="511" height="385" viewBox="0 0 511 385" fill="none" xmlns="http://www.w3.org/2000/svg">
<path d="M433 316.5C433 316.5 501 312 501 267C501 189.5 405.5 157.5 405.5 157.5C405.5 157.5 442.438 129.8 440 86.5C437.562 43.2002 402.868 10.0013 359.5 10C315.5 9.99866 298 37 298 37M78 316.5C78 316.5 10 312 10 267C10 189.5 105.5 157.5 105.5 157.5C105.5 157.5 68.5619 129.8 71 86.5001C73.4381 43.2003 108.132 10.0014 151.5 10.0001C195.5 9.99879 213 37.0001 213 37.0001M289 218.5C289 218.5 341 196.5 341 148C341 99.7957 303.704 59.5 255.5 59.5C207.296 59.5 170 99.7957 170 148C170 196.5 222 218.5 222 218.5C222 218.5 112.5 245.5 112.5 333C112.5 375 162 375 255.5 375C349 375 398.5 375 398.5 333C398.5 245.5 289 218.5 289 218.5Z" stroke="black" stroke-width="20" stroke-linecap="square" stroke-linejoin="round"/>
</svg>
